<?xml version="1.0" encoding="UTF-8"?>
<svg version="1.1" xmlns="http://www.w3.org/2000/svg" width="500" height="500">
<path d="M0 0 C0.87173859 -0.00902847 1.74347717 -0.01805695 2.64163208 -0.02735901 C4.48582524 -0.04186487 6.3300699 -0.05074908 8.17431641 -0.05444336 C10.99079483 -0.0663344 13.80507816 -0.11550966 16.62109375 -0.16601562 C18.41405182 -0.17548071 20.20702333 -0.18271534 22 -0.1875 C22.83973358 -0.20703232 23.67946716 -0.22656464 24.54464722 -0.24668884 C28.63279435 -0.21526799 30.66108905 0.06455715 34.16210938 2.33959961 C36.84374608 6.464709 36.85548711 9.60698824 36.796875 14.43359375 C36.80165863 15.30250244 36.80644226 16.17141113 36.81137085 17.06665039 C36.81476475 18.89894426 36.80559794 20.7312991 36.78466797 22.56347656 C36.75789273 25.36270594 36.78443053 28.15792608 36.81640625 30.95703125 C36.81310206 32.74089424 36.80669563 34.52475474 36.796875 36.30859375 C36.80699615 37.14205322 36.81711731 37.9755127 36.82754517 38.83422852 C36.74599266 42.89257285 36.42349341 44.92591001 34.15771484 48.39599609 C30.0374858 51.08628286 26.89688135 51.09376792 22.0703125 51.03515625 C20.76694946 51.0423317 20.76694946 51.0423317 19.43725586 51.0496521 C17.60496199 51.053046 15.77260715 51.04387919 13.94042969 51.02294922 C11.14120031 50.99617398 8.34598017 51.02271178 5.546875 51.0546875 C3.76301201 51.05138331 1.97915151 51.04497688 0.1953125 51.03515625 C-0.63814697 51.0452774 -1.47160645 51.05539856 -2.33032227 51.06582642 C-6.39817109 50.98408292 -8.42305649 50.6621378 -11.89868164 48.38452148 C-14.56673525 44.30021221 -14.54034847 41.27096098 -14.42578125 36.4921875 C-14.42344986 35.64310318 -14.42111847 34.79401886 -14.41871643 33.91920471 C-14.40899946 32.12970895 -14.38725944 30.34024302 -14.35424805 28.55102539 C-14.30478795 25.81415204 -14.29276237 23.07907712 -14.28710938 20.34179688 C-14.27302413 18.60024132 -14.25681998 16.85870134 -14.23828125 15.1171875 C-14.23291855 14.30044052 -14.22755585 13.48369354 -14.22203064 12.64219666 C-14.06965103 5.35681963 -14.06965103 5.35681963 -11.8671875 2.37109375 C-7.94644298 -0.24273593 -4.55457657 0.02894685 0 0 Z M-2.4609375 15.77734375 C-4.64758341 19.81049066 -4.28868088 23.62128946 -4.1171875 28.12109375 C-4.0346875 31.17359375 -3.9521875 34.22609375 -3.8671875 37.37109375 C3.7228125 37.37109375 11.3128125 37.37109375 19.1328125 37.37109375 C19.1328125 33.74109375 19.1328125 30.11109375 19.1328125 26.37109375 C21.7728125 27.69109375 24.4128125 29.01109375 27.1328125 30.37109375 C27.1328125 27.07109375 27.1328125 23.77109375 27.1328125 20.37109375 C23.1728125 22.35109375 23.1728125 22.35109375 19.1328125 24.37109375 C19.1328125 21.07109375 19.1328125 17.77109375 19.1328125 14.37109375 C16.04854204 14.26308428 12.96805503 14.18378373 9.8828125 14.12109375 C9.01011719 14.08757812 8.13742188 14.0540625 7.23828125 14.01953125 C3.47325711 13.96204997 0.88636883 13.96253911 -2.4609375 15.77734375 Z " fill="#0A0A0A" transform="translate(238.8671875,224.62890625)"/>
<path d="M0 0 C0.72340576 0.00749268 1.44681152 0.01498535 2.19213867 0.02270508 C3.5607605 0.0636731 3.5607605 0.0636731 4.95703125 0.10546875 C9.31921875 0.19828125 9.31921875 0.19828125 13.76953125 0.29296875 C13.76953125 7.22296875 13.76953125 14.15296875 13.76953125 21.29296875 C6.83953125 21.29296875 -0.09046875 21.29296875 -7.23046875 21.29296875 C-7.29234375 18.38484375 -7.35421875 15.47671875 -7.41796875 12.48046875 C-7.44528076 11.5680542 -7.47259277 10.65563965 -7.50073242 9.71557617 C-7.5082251 8.99217041 -7.51571777 8.26876465 -7.5234375 7.5234375 C-7.53914795 6.78504639 -7.5548584 6.04665527 -7.57104492 5.28588867 C-6.81976085 0.88966512 -4.11479397 -0.08754881 0 0 Z " fill="#101010" transform="translate(243.23046875,239.70703125)"/>
</svg>
