<?xml version="1.0" encoding="UTF-8"?>
<svg version="1.1" xmlns="http://www.w3.org/2000/svg" width="500" height="500">
<path d="M0 0 C165 0 330 0 500 0 C500 165 500 330 500 500 C335 500 170 500 0 500 C0 335 0 170 0 0 Z " fill="#000000" transform="translate(0,0)"/>
<path d="M0 0 C1.12589648 -0.00657338 1.12589648 -0.00657338 2.27453834 -0.01327956 C4.76699745 -0.02653831 7.25942134 -0.0328167 9.75190735 -0.03897095 C11.54790909 -0.04688142 13.34390927 -0.05515094 15.13990784 -0.06375122 C21.01357024 -0.0898371 26.88723935 -0.10525395 32.76094055 -0.11953735 C34.78657853 -0.12490041 36.81221648 -0.13027793 38.83785439 -0.13566971 C47.25953779 -0.15726848 55.68121936 -0.17600823 64.10292339 -0.1872921 C76.16230791 -0.20355993 88.22137185 -0.23684059 100.28063554 -0.29369295 C108.76912751 -0.33234794 117.25753352 -0.35191885 125.74611121 -0.35721266 C130.81396683 -0.36086889 135.88147943 -0.37292146 140.94923973 -0.4053154 C145.71084117 -0.43532199 150.47189055 -0.44173449 155.23356628 -0.42993164 C156.98111845 -0.42971036 158.72869575 -0.43806017 160.47616005 -0.45558548 C162.8612401 -0.4782058 165.24430531 -0.47001784 167.62939453 -0.45410156 C168.3214169 -0.46798365 169.01343928 -0.48186574 169.72643203 -0.49616849 C173.44686805 -0.4349494 175.06781763 0.11063049 178.05269623 2.40043736 C180.19745496 5.25124134 180.75118065 6.33456106 180.76345825 9.81730652 C180.77874573 10.72449432 180.7940332 11.63168213 180.80978394 12.56636047 C180.80115829 13.54891312 180.79253265 14.53146576 180.78364563 15.54379272 C180.79412933 16.58815491 180.80461304 17.63251709 180.81541443 18.70852661 C180.844182 22.15546311 180.8378705 25.60139626 180.83125305 29.0484314 C180.84436696 31.44026449 180.85967023 33.8320865 180.8770752 36.22389221 C180.9169734 42.51544013 180.92711883 48.80669865 180.93110657 55.09835815 C180.9404288 61.51995652 180.97783672 67.9413842 181.01289368 74.36288452 C181.07751883 86.9598745 181.11167241 99.55675617 181.1242218 112.15390015 C181.78579285 111.7664563 182.44736389 111.37901245 183.12898254 110.97982788 C206.54092252 97.27592358 206.54092252 97.27592358 217.6242218 91.15390015 C226.03474068 86.47664561 234.38368261 81.70688373 242.6867218 76.84140015 C249.60642286 72.78905936 256.52599866 68.73867462 263.4992218 64.77890015 C264.15350159 64.40338013 264.80778137 64.02786011 265.48188782 63.64096069 C269.88937492 61.15390015 269.88937492 61.15390015 272.1242218 61.15390015 C272.1242218 102.73390015 272.1242218 144.31390015 272.1242218 187.15390015 C267.81580456 185.71776107 264.91356308 184.62683921 261.16719055 182.38827515 C260.23262024 181.83526733 259.29804993 181.28225952 258.3351593 180.7124939 C256.83855774 179.81723999 256.83855774 179.81723999 255.3117218 178.90390015 C246.80787184 173.8765323 238.25991699 168.95128185 229.6242218 164.15390015 C218.3672252 157.88853002 207.2264729 151.43680826 196.11901855 144.91062927 C193.00807264 143.08576777 189.89346285 141.26730265 186.77778625 139.45053101 C185.71405289 138.83020493 184.65031952 138.20987885 183.55435181 137.570755 C182.75240891 137.1031929 181.950466 136.6356308 181.1242218 136.15390015 C181.12459883 136.76773906 181.12497585 137.38157797 181.1253643 138.01401806 C181.13248309 152.95386243 181.10656981 167.8933117 181.04394341 182.83301067 C181.01445305 190.05780777 180.99612124 197.28231074 181.00410461 204.50717163 C181.01103506 210.80480449 180.99698161 217.10198213 180.95778573 223.39950305 C180.93776403 226.73385351 180.93134354 230.06732877 180.94379807 233.40173912 C180.95592573 237.12542621 180.93096657 240.84713455 180.89717102 244.57064819 C180.90939194 245.67476044 180.92161285 246.77887268 180.9342041 247.91644287 C180.91754196 248.93301468 180.90087982 249.94958649 180.88371277 250.9969635 C180.88186918 251.8772758 180.8800256 252.7575881 180.87812614 253.66457653 C179.9686639 256.66753821 178.53753529 258.3011032 176.03636575 260.179802 C172.29141226 262.08758319 168.40864072 261.83895915 164.28704834 261.78881836 C162.80844608 261.80051829 162.80844608 261.80051829 161.29997307 261.81245458 C157.99939047 261.83238647 154.6999593 261.81660465 151.39936829 261.8008728 C149.03223497 261.8076483 146.66510693 261.81655105 144.29798889 261.8274231 C137.8703962 261.85022935 131.44320449 261.84137456 125.01560473 261.82552767 C121.00165005 261.81663965 116.98774668 261.81831472 112.97378731 261.82297897 C112.3071818 261.82374514 111.6405763 261.8245113 110.95377063 261.82530069 C109.59953146 261.82689933 108.24529232 261.8285204 106.89105321 261.83016364 C94.19734401 261.8444158 81.50381547 261.82803632 68.81013591 261.80116181 C57.91937947 261.77881829 47.02888947 261.78270794 36.13813782 261.80575562 C23.48790875 261.8325143 10.83783788 261.84304796 -1.81241554 261.8276943 C-3.16133016 261.82610156 -4.5102448 261.82452971 -5.85915947 261.82297897 C-6.52283656 261.8222076 -7.18651364 261.82143622 -7.87030216 261.82064147 C-12.54634949 261.81632502 -17.22226618 261.82385391 -21.89830208 261.83537674 C-28.19147168 261.8498012 -34.48413716 261.83983597 -40.7772522 261.81090546 C-43.08916829 261.80428421 -45.40112668 261.8062099 -47.71302605 261.81721878 C-50.86445632 261.83084388 -54.01426217 261.8137938 -57.16558838 261.78881836 C-58.5441808 261.80554877 -58.5441808 261.80554877 -59.95062357 261.82261717 C-64.21237288 261.75691501 -66.32823838 261.5207377 -69.94298267 259.09895229 C-72.33038337 255.4612061 -72.5761075 252.61392393 -72.51069641 248.39814758 C-72.51849636 247.62394472 -72.52629632 246.84974186 -72.53433263 246.05207831 C-72.55425866 243.46045187 -72.53848565 240.87029306 -72.52275085 238.27865601 C-72.52952757 236.41875858 -72.538431 234.55886787 -72.54930115 232.69898987 C-72.57211836 227.64421836 -72.56324181 222.5899566 -72.54740572 217.53517604 C-72.53473109 212.23005616 -72.5464938 206.92497942 -72.55433655 201.61985779 C-72.56344045 192.6945211 -72.55143818 183.76939101 -72.52763367 174.84408569 C-72.500546 164.57011971 -72.50914322 154.2966518 -72.53676569 144.02269834 C-72.55958463 135.17730461 -72.56259109 126.33205948 -72.54957235 117.48664576 C-72.54183151 112.21544524 -72.54058405 106.94447714 -72.55725479 101.67329216 C-72.57188259 96.69985107 -72.56134976 91.72703842 -72.53278351 86.75366402 C-72.52626371 84.94471903 -72.52791044 83.13571963 -72.53909683 81.32679749 C-72.65999305 59.7586542 -68.31199745 38.20765754 -52.99882507 22.14389038 C-44.02832712 13.12570974 -33.72866221 7.54536318 -21.8757782 3.15390015 C-20.3289032 2.56608765 -20.3289032 2.56608765 -18.7507782 1.96640015 C-12.60871293 0.23059909 -6.34886617 0.0046112 0 0 Z " fill="#010101" transform="translate(156.8757781982422,125.84609985351563)"/>
<path d="M0 0 C1.12589648 -0.00657338 1.12589648 -0.00657338 2.27453834 -0.01327956 C4.76699745 -0.02653831 7.25942134 -0.0328167 9.75190735 -0.03897095 C11.54790909 -0.04688142 13.34390927 -0.05515094 15.13990784 -0.06375122 C21.01357024 -0.0898371 26.88723935 -0.10525395 32.76094055 -0.11953735 C34.78657853 -0.12490041 36.81221648 -0.13027793 38.83785439 -0.13566971 C47.25953779 -0.15726848 55.68121936 -0.17600823 64.10292339 -0.1872921 C76.16230791 -0.20355993 88.22137185 -0.23684059 100.28063554 -0.29369295 C108.76912751 -0.33234794 117.25753352 -0.35191885 125.74611121 -0.35721266 C130.81396683 -0.36086889 135.88147943 -0.37292146 140.94923973 -0.4053154 C145.71084117 -0.43532199 150.47189055 -0.44173449 155.23356628 -0.42993164 C156.98111845 -0.42971036 158.72869575 -0.43806017 160.47616005 -0.45558548 C162.8612401 -0.4782058 165.24430531 -0.47001784 167.62939453 -0.45410156 C168.3214169 -0.46798365 169.01343928 -0.48186574 169.72643203 -0.49616849 C173.44686805 -0.4349494 175.06781763 0.11063049 178.05269623 2.40043736 C180.19745496 5.25124134 180.75118065 6.33456106 180.76345825 9.81730652 C180.77874573 10.72449432 180.7940332 11.63168213 180.80978394 12.56636047 C180.80115829 13.54891312 180.79253265 14.53146576 180.78364563 15.54379272 C180.79412933 16.58815491 180.80461304 17.63251709 180.81541443 18.70852661 C180.844182 22.15546311 180.8378705 25.60139626 180.83125305 29.0484314 C180.84436696 31.44026449 180.85967023 33.8320865 180.8770752 36.22389221 C180.9169734 42.51544013 180.92711883 48.80669865 180.93110657 55.09835815 C180.9404288 61.51995652 180.97783672 67.9413842 181.01289368 74.36288452 C181.07751883 86.9598745 181.11167241 99.55675617 181.1242218 112.15390015 C181.78579285 111.7664563 182.44736389 111.37901245 183.12898254 110.97982788 C206.54092252 97.27592358 206.54092252 97.27592358 217.6242218 91.15390015 C226.03474068 86.47664561 234.38368261 81.70688373 242.6867218 76.84140015 C249.60642286 72.78905936 256.52599866 68.73867462 263.4992218 64.77890015 C264.15350159 64.40338013 264.80778137 64.02786011 265.48188782 63.64096069 C269.88937492 61.15390015 269.88937492 61.15390015 272.1242218 61.15390015 C272.1242218 102.73390015 272.1242218 144.31390015 272.1242218 187.15390015 C267.81580456 185.71776107 264.91356308 184.62683921 261.16719055 182.38827515 C260.23262024 181.83526733 259.29804993 181.28225952 258.3351593 180.7124939 C256.83855774 179.81723999 256.83855774 179.81723999 255.3117218 178.90390015 C246.80787184 173.8765323 238.25991699 168.95128185 229.6242218 164.15390015 C218.3672252 157.88853002 207.2264729 151.43680826 196.11901855 144.91062927 C193.00807264 143.08576777 189.89346285 141.26730265 186.77778625 139.45053101 C185.71405289 138.83020493 184.65031952 138.20987885 183.55435181 137.570755 C182.75240891 137.1031929 181.950466 136.6356308 181.1242218 136.15390015 C181.12459883 136.76773906 181.12497585 137.38157797 181.1253643 138.01401806 C181.13248309 152.95386243 181.10656981 167.8933117 181.04394341 182.83301067 C181.01445305 190.05780777 180.99612124 197.28231074 181.00410461 204.50717163 C181.01103506 210.80480449 180.99698161 217.10198213 180.95778573 223.39950305 C180.93776403 226.73385351 180.93134354 230.06732877 180.94379807 233.40173912 C180.95592573 237.12542621 180.93096657 240.84713455 180.89717102 244.57064819 C180.90939194 245.67476044 180.92161285 246.77887268 180.9342041 247.91644287 C180.91754196 248.93301468 180.90087982 249.94958649 180.88371277 250.9969635 C180.88186918 251.8772758 180.8800256 252.7575881 180.87812614 253.66457653 C179.9686639 256.66753821 178.53753529 258.3011032 176.03636575 260.179802 C172.29141226 262.08758319 168.40864072 261.83895915 164.28704834 261.78881836 C162.80844608 261.80051829 162.80844608 261.80051829 161.29997307 261.81245458 C157.99939047 261.83238647 154.6999593 261.81660465 151.39936829 261.8008728 C149.03223497 261.8076483 146.66510693 261.81655105 144.29798889 261.8274231 C137.8703962 261.85022935 131.44320449 261.84137456 125.01560473 261.82552767 C121.00165005 261.81663965 116.98774668 261.81831472 112.97378731 261.82297897 C112.3071818 261.82374514 111.6405763 261.8245113 110.95377063 261.82530069 C109.59953146 261.82689933 108.24529232 261.8285204 106.89105321 261.83016364 C94.19734401 261.8444158 81.50381547 261.82803632 68.81013591 261.80116181 C57.91937947 261.77881829 47.02888947 261.78270794 36.13813782 261.80575562 C23.48790875 261.8325143 10.83783788 261.84304796 -1.81241554 261.8276943 C-3.16133016 261.82610156 -4.5102448 261.82452971 -5.85915947 261.82297897 C-6.52283656 261.8222076 -7.18651364 261.82143622 -7.87030216 261.82064147 C-12.54634949 261.81632502 -17.22226618 261.82385391 -21.89830208 261.83537674 C-28.19147168 261.8498012 -34.48413716 261.83983597 -40.7772522 261.81090546 C-43.08916829 261.80428421 -45.40112668 261.8062099 -47.71302605 261.81721878 C-50.86445632 261.83084388 -54.01426217 261.8137938 -57.16558838 261.78881836 C-58.5441808 261.80554877 -58.5441808 261.80554877 -59.95062357 261.82261717 C-64.21237288 261.75691501 -66.32823838 261.5207377 -69.94298267 259.09895229 C-72.33038337 255.4612061 -72.5761075 252.61392393 -72.51069641 248.39814758 C-72.51849636 247.62394472 -72.52629632 246.84974186 -72.53433263 246.05207831 C-72.55425866 243.46045187 -72.53848565 240.87029306 -72.52275085 238.27865601 C-72.52952757 236.41875858 -72.538431 234.55886787 -72.54930115 232.69898987 C-72.57211836 227.64421836 -72.56324181 222.5899566 -72.54740572 217.53517604 C-72.53473109 212.23005616 -72.5464938 206.92497942 -72.55433655 201.61985779 C-72.56344045 192.6945211 -72.55143818 183.76939101 -72.52763367 174.84408569 C-72.500546 164.57011971 -72.50914322 154.2966518 -72.53676569 144.02269834 C-72.55958463 135.17730461 -72.56259109 126.33205948 -72.54957235 117.48664576 C-72.54183151 112.21544524 -72.54058405 106.94447714 -72.55725479 101.67329216 C-72.57188259 96.69985107 -72.56134976 91.72703842 -72.53278351 86.75366402 C-72.52626371 84.94471903 -72.52791044 83.13571963 -72.53909683 81.32679749 C-72.65999305 59.7586542 -68.31199745 38.20765754 -52.99882507 22.14389038 C-44.02832712 13.12570974 -33.72866221 7.54536318 -21.8757782 3.15390015 C-20.3289032 2.56608765 -20.3289032 2.56608765 -18.7507782 1.96640015 C-12.60871293 0.23059909 -6.34886617 0.0046112 0 0 Z M-42.02812195 37.5093689 C-51.93827846 51.69367325 -54.33137864 65.79384444 -54.21635437 82.74252319 C-54.21543388 84.52605323 -54.21583837 86.30958435 -54.21745014 88.0931139 C-54.21812353 92.84127665 -54.2008185 97.58920959 -54.17961884 102.33731842 C-54.16245135 106.80340752 -54.16172501 111.26944255 -54.15959167 115.73556519 C-54.1438904 128.77087358 -54.10200663 141.80613982 -54.0632782 154.84140015 C-54.0014032 183.98452515 -53.9395282 213.12765015 -53.8757782 243.15390015 C17.4042218 243.15390015 88.6842218 243.15390015 162.1242218 243.15390015 C162.1242218 168.90390015 162.1242218 94.65390015 162.1242218 18.15390015 C120.2967218 17.96827515 120.2967218 17.96827515 77.6242218 17.77890015 C68.84248352 17.72427612 60.06074524 17.6696521 51.01289368 17.6133728 C43.09230745 17.59329745 43.09230745 17.59329745 35.17170715 17.58123779 C31.66300866 17.57568201 28.15486327 17.55333648 24.64631653 17.52044678 C20.15257151 17.47888827 15.65961548 17.4670261 11.16569614 17.47546649 C9.52794743 17.47370507 7.89016736 17.46204637 6.25258541 17.43860936 C-11.94162697 17.19058875 -30.02132263 23.03710771 -42.02812195 37.5093689 Z " fill="#FEFEFE" transform="translate(156.8757781982422,125.84609985351563)"/>
</svg>
